<?xml version="1.0" standalone="no"?>
<!DOCTYPE svg PUBLIC "-//W3C//DTD SVG 20010904//EN"
 "http://www.w3.org/TR/2001/REC-SVG-20010904/DTD/svg10.dtd">
<svg version="1.0" xmlns="http://www.w3.org/2000/svg"
 width="1229.000000pt" height="202.000000pt" viewBox="0 0 1229.000000 202.000000"
 preserveAspectRatio="xMidYMid meet">

<g transform="translate(0.000000,202.000000) scale(0.100000,-0.100000)"
fill="#D94881" stroke="none">
<path d="M1420 1945 c-514 -35 -957 -65 -984 -67 l-48 -3 -169 -425 c-93 -234
-168 -430 -167 -436 2 -6 158 -149 348 -317 l345 -306 640 0 640 -1 695 -131
694 -132 536 62 c490 56 625 67 1597 132 l1062 71 647 -70 646 -70 627 70 627
69 506 -69 507 -70 448 69 c246 38 644 91 883 119 239 27 446 53 459 57 21 7
36 50 148 403 68 217 125 409 126 425 2 25 -39 85 -243 357 l-245 327 -630 0
-630 0 -866 -127 -867 -128 -668 62 -669 63 -1545 65 -1545 66 -985 -1 -985
-1 -935 -63z"/>
</g>
</svg>
