<?xml version="1.0" standalone="no"?>
<!DOCTYPE svg PUBLIC "-//W3C//DTD SVG 20010904//EN"
 "http://www.w3.org/TR/2001/REC-SVG-20010904/DTD/svg10.dtd">
<svg version="1.0" xmlns="http://www.w3.org/2000/svg"
 width="330.000000pt" height="74.000000pt" viewBox="0 0 330.000000 74.000000"
 preserveAspectRatio="xMidYMid meet">

<g transform="translate(0.000000,74.000000) scale(0.100000,-0.100000)"
fill="#0B4591" stroke="none">
<path d="M955 688 l-190 -47 -213 -1 -212 0 -168 -42 c-92 -22 -168 -42 -169
-42 -3 -2 66 -376 72 -396 3 -8 22 -34 43 -57 l37 -41 372 -27 373 -27 339 27
338 28 334 -27 c447 -35 709 -35 979 -1 107 14 200 25 206 25 12 0 200 258
197 270 -1 4 -43 75 -93 158 -102 170 -77 151 -256 192 l-91 21 -260 -30 -260
-30 -238 29 c-150 19 -354 36 -545 45 -168 8 -328 16 -355 18 -35 2 -106 -11
-240 -45z"/>
</g>
</svg>
